# Blender v2.78 (sub 0) OBJ File: 'CHAHIN_TRASHCAN.blend'
# www.blender.org
mtllib CHAHIN_TRASHCAN.mtl
o TRASH_CAN_Cube.037
v -0.794607 -1.679630 0.794608
v -0.794607 1.290992 0.794608
v -0.794607 -1.679630 -0.794608
v -0.794607 1.290992 -0.794608
v 0.794608 -1.679630 0.794608
v 0.794608 1.290992 0.794608
v 0.794608 -1.679630 -0.794608
v 0.794608 1.290992 -0.794608
v -1.095200 -1.679630 -0.000000
v -1.095200 1.290992 -0.000000
v 1.095201 -1.679630 -0.000000
v 1.095201 1.290992 -0.000000
v 0.000001 -1.679630 -1.095200
v 0.000001 1.290992 -1.095200
v 0.000001 -1.679630 1.095200
v 0.000001 1.290992 1.095200
v -1.226153 1.511163 -0.000000
v 0.000001 -1.679630 -0.000000
v -1.226153 1.290992 -0.000000
v -0.889618 1.290992 -0.889619
v 0.000001 1.290992 -1.226154
v 0.889619 1.290992 -0.889619
v 1.226154 1.290992 -0.000000
v 0.889619 1.290992 0.889619
v 0.000001 1.290992 1.226154
v -0.889618 1.290992 0.889619
v 0.081583 1.735499 -0.395308
v -0.889618 1.511163 -0.889619
v 0.000001 1.511163 -1.226154
v 0.889619 1.511163 -0.889619
v 1.226154 1.511163 -0.000000
v 0.889619 1.511163 0.889619
v 0.000001 1.511163 1.226154
v -0.889618 1.511163 0.889619
v 0.081583 1.735499 0.395307
v -0.081582 1.606957 0.239834
v -0.081582 1.606957 -0.239834
v -0.081582 1.453176 0.395307
v -0.081582 1.735499 -0.395308
v -0.081582 1.735499 0.395307
v 0.081583 1.606957 -0.239834
v 0.081583 1.606957 0.239834
v 0.000001 1.511163 -0.000000
v 0.081583 1.453176 0.395307
v -0.081582 1.453176 -0.239834
v -0.081582 1.453176 -0.395308
v 0.081583 1.453176 -0.395308
v 0.081583 1.453176 -0.239834
v -0.081582 1.453176 0.239834
v 0.081583 1.453176 0.239834
vt 0.7824 0.4476
vt 0.7824 0.8953
vt 0.6567 0.8953
vt 0.6567 0.4476
vt 0.7911 0.4476
vt 0.7911 0.0000
vt 0.9255 0.0000
vt 0.9255 0.4476
vt 0.5223 0.4476
vt 0.5223 0.0000
vt 0.6567 0.0000
vt 0.6567 0.4476
vt 0.5223 0.8953
vt 0.5223 0.4476
vt 0.6567 0.4476
vt 0.6567 0.8953
vt 0.1733 0.8456
vt 0.1077 0.6913
vt 0.2514 0.6913
vt 0.2721 0.0185
vt 0.1284 0.0185
vt 0.1206 0.0000
vt 0.2815 0.0000
vt 0.0207 0.2312
vt 0.1158 0.3272
vt 0.1065 0.3456
vt 0.0000 0.2382
vt 0.0000 0.7760
vt 0.3879 0.4476
vt 0.3879 0.0000
vt 0.9227 0.4476
vt 0.9227 0.8953
vt 0.0951 1.0000
vt 0.0000 0.9040
vt 0.3672 0.1144
vt 0.3879 0.1074
vt 0.0207 0.1032
vt 0.0000 0.0949
vt 0.3465 0.7872
vt 0.3465 0.9153
vt 0.3879 0.8953
vt 0.3879 0.4476
vt 0.6567 0.0000
vt 1.0000 0.0000
vt 1.0000 0.1254
vt 0.9628 0.1254
vt 0.9628 0.0000
vt 0.9227 0.7158
vt 0.9227 0.5817
vt 0.9600 0.5817
vt 0.9600 0.7158
vt 1.0000 0.2653
vt 0.9628 0.2653
vt 0.9628 0.1341
vt 0.9628 0.2681
vt 0.9255 0.2681
vt 0.9255 0.1341
vt 0.2595 0.3272
vt 0.3672 0.2424
vt 0.3879 0.2508
vt 0.2673 0.3456
vt 0.1940 0.5185
vt 0.3879 0.4531
vt 0.3879 0.5964
vt 0.9531 0.3860
vt 0.9807 0.3860
vt 0.9807 0.4286
vt 0.9531 0.4286
vt 0.1206 0.3456
vt 0.2815 0.3456
vt 0.9600 0.5817
vt 0.9600 0.4476
vt 0.9972 0.4476
vt 0.9972 0.5817
vt 0.9227 0.4476
vt 0.9600 0.4476
vt 0.9628 0.0000
vt 0.9255 0.0000
vt 0.9600 0.7158
vt 0.9972 0.7158
vt 0.9753 0.8349
vt 0.9753 0.8595
vt 0.9490 0.8595
vt 0.9490 0.8349
vt 0.9445 0.8115
vt 0.9227 0.8349
vt 0.9227 0.7158
vt 0.9445 0.7392
vt 0.3741 0.8104
vt 0.3465 0.8104
vt 0.3465 0.6913
vt 0.3741 0.6913
vt 0.3465 0.8104
vt 0.3741 0.8104
vt 0.3741 0.8827
vt 0.3465 0.8827
vt 0.0000 0.5838
vt 0.0000 0.4405
vt 0.2673 0.6913
vt 0.1065 0.6913
vt 0.9733 0.2681
vt 0.9515 0.2913
vt 0.9255 0.2913
vt 0.9255 0.2681
vt 0.9733 0.3860
vt 0.9515 0.3628
vt 0.9490 0.8349
vt 0.9490 0.8595
vt 0.9227 0.8595
vt 0.9227 0.8349
vt 0.9705 0.8115
vt 0.9705 0.8349
vt 0.9705 0.7158
vt 0.9705 0.7392
vt 0.9255 0.3860
vt 0.9531 0.3860
vt 0.9531 0.4286
vt 0.9255 0.4286
vt 0.9487 0.8595
vt 0.9487 0.8841
vt 0.9227 0.8841
vt 0.9255 0.3860
vt 0.9255 0.3628
vt 0.9747 0.8595
vt 0.9747 0.8841
vt 0.9487 0.8841
vt 0.9487 0.8595
vt 0.2388 1.0000
vn -0.9353 0.0000 -0.3538
vn 0.3538 0.0000 -0.9353
vn 0.9353 0.0000 0.3538
vn -0.3538 0.0000 0.9353
vn 0.0000 -1.0000 0.0000
vn 0.9353 0.0000 -0.3538
vn -0.9353 0.0000 0.3538
vn 0.3538 0.0000 0.9353
vn -0.3538 0.0000 -0.9353
vn 0.0000 1.0000 0.0000
vn 0.0000 0.0000 -1.0000
vn 1.0000 0.0000 0.0000
vn -1.0000 0.0000 0.0000
vn 0.0000 0.0000 1.0000
usemtl Material.006
s off
f 9/1/1 10/2/1 4/3/1 3/4/1
f 13/5/2 14/6/2 8/7/2 7/8/2
f 11/9/3 12/10/3 6/11/3 5/12/3
f 15/13/4 16/14/4 2/15/4 1/16/4
f 18/17/5 11/18/5 5/19/5
f 6/20/5 12/21/5 23/22/5 24/23/5
f 14/24/5 4/25/5 20/26/5 21/27/5
f 7/28/5 11/18/5 18/17/5
f 7/29/6 8/30/6 12/10/6 11/9/6
f 1/31/7 2/32/7 10/2/7 9/1/7
f 3/33/5 13/34/5 18/17/5
f 16/35/5 6/20/5 24/23/5 25/36/5
f 8/37/5 14/24/5 21/27/5 22/38/5
f 18/17/5 15/39/5 1/40/5
f 5/41/8 6/42/8 16/14/8 15/13/8
f 3/4/9 4/43/9 14/6/9 13/5/9
f 20/44/1 19/45/1 17/46/1 28/47/1
f 24/48/3 23/49/3 31/50/3 32/51/3
f 19/45/7 26/52/7 34/53/7 17/46/7
f 25/54/8 24/55/8 32/56/8 33/57/8
f 12/21/5 8/37/5 22/38/5 23/22/5
f 10/58/5 2/59/5 26/60/5 19/61/5
f 4/25/5 10/58/5 19/61/5 20/26/5
f 2/59/5 16/35/5 25/36/5 26/60/5
f 43/62/10 29/63/10 28/64/10
f 39/65/11 27/66/11 47/67/11 46/68/11
f 43/62/10 31/69/10 30/70/10
f 21/71/9 20/72/9 28/73/9 29/74/9
f 23/49/6 22/75/6 30/76/6 31/50/6
f 26/77/4 25/54/4 33/57/4 34/78/4
f 22/79/2 21/71/2 29/74/2 30/80/2
f 49/81/5 50/82/5 44/83/5 38/84/5
f 41/85/12 27/86/12 35/87/12 42/88/12
f 27/89/10 39/90/10 40/91/10 35/92/10
f 37/93/5 41/94/5 42/95/5 36/96/5
f 43/62/10 33/97/10 32/98/10
f 43/62/10 17/99/10 34/100/10
f 40/101/13 36/102/13 49/103/13 38/104/13
f 36/102/13 40/101/13 39/105/13 37/106/13
f 46/107/5 47/108/5 48/109/5 45/110/5
f 27/86/12 41/85/12 48/111/12 47/112/12
f 42/88/12 35/87/12 44/113/12 50/114/12
f 35/115/14 40/116/14 38/117/14 44/118/14
f 41/119/14 37/120/14 45/121/14 48/109/14
f 37/106/13 39/105/13 46/122/13 45/123/13
f 36/124/11 42/125/11 50/126/11 49/127/11
f 31/69/10 43/62/10 32/98/10
f 17/99/10 43/62/10 28/64/10
f 33/97/10 43/62/10 34/100/10
f 29/63/10 43/62/10 30/70/10
f 13/34/5 7/28/5 18/17/5
f 15/39/5 18/17/5 5/19/5
f 9/128/5 3/33/5 18/17/5
f 9/128/5 18/17/5 1/40/5
